<?xml version="1.0" encoding="UTF-8" standalone="no"?>
<svg
   xmlns:dc="http://purl.org/dc/elements/1.1/"
   xmlns:cc="http://creativecommons.org/ns#"
   xmlns:rdf="http://www.w3.org/1999/02/22-rdf-syntax-ns#"
   xmlns:svg="http://www.w3.org/2000/svg"
   xmlns="http://www.w3.org/2000/svg"
   xmlns:sodipodi="http://sodipodi.sourceforge.net/DTD/sodipodi-0.dtd"
   xmlns:inkscape="http://www.inkscape.org/namespaces/inkscape"
   width="82"
   height="21"
   id="svg2"
   version="1.1"
   inkscape:version="0.91 r13725"
   sodipodi:docname="liberapay-donate.svg">
  <metadata
     id="metadata19">
    <rdf:RDF>
      <cc:Work
         rdf:about="">
        <dc:format>image/svg+xml</dc:format>
        <dc:type
           rdf:resource="http://purl.org/dc/dcmitype/StillImage" />
        <dc:title></dc:title>
      </cc:Work>
    </rdf:RDF>
  </metadata>
  <defs
     id="defs17" />
  <sodipodi:namedview
     pagecolor="#ffffff"
     bordercolor="#666666"
     borderopacity="1"
     objecttolerance="10"
     gridtolerance="10"
     guidetolerance="10"
     inkscape:pageopacity="0"
     inkscape:pageshadow="2"
     inkscape:window-width="3840"
     inkscape:window-height="2064"
     id="namedview15"
     showgrid="false"
     inkscape:zoom="13.759036"
     inkscape:cx="10.62332"
     inkscape:cy="17.012519"
     inkscape:window-x="0"
     inkscape:window-y="0"
     inkscape:window-maximized="1"
     inkscape:current-layer="svg2"
     fit-margin-top="0"
     fit-margin-left="0"
     fit-margin-right="0"
     fit-margin-bottom="0" />
  <rect
     id="back"
     x="0.072679512"
     y="0.067426629"
     width="81.927322"
     height="20.932573"
     rx="3.9964547"
     style="fill:#f6c915" />
  <text
     font-weight="700"
     font-size="14"
     x="48.927322"
     y="15.424694"
     id="text13"
     style="font-weight:700;font-size:14px;font-family:'Helvetica Neue', Helvetica, Arial, sans-serif;text-anchor:middle;fill:#1a171b">Donate</text>
  <g
     style="fill:#1a171b"
     transform="matrix(0.19986501,0,0,0.19986501,-9.2609948,-39.153911)"
     id="g3379">
    <path
       inkscape:connector-curvature="0"
       d="m 104.28,271.1 c -3.571,0 -6.373,-0.466 -8.41,-1.396 -2.037,-0.93 -3.495,-2.199 -4.375,-3.809 -0.88,-1.609 -1.308,-3.457 -1.282,-5.544 0.025,-2.086 0.313,-4.311 0.868,-6.675 l 9.579,-40.05 11.69,-1.81 -10.484,43.44 c -0.202,0.905 -0.314,1.735 -0.339,2.489 -0.026,0.754 0.113,1.421 0.415,1.999 0.302,0.579 0.817,1.044 1.546,1.395 0.729,0.353 1.747,0.579 3.055,0.679 l -2.263,9.278"
       id="path3381" />
    <path
       inkscape:connector-curvature="0"
       d="m 146.52,246.14 c 0,3.671 -0.604,7.03 -1.811,10.07 -1.207,3.043 -2.879,5.669 -5.01,7.881 -2.138,2.213 -4.702,3.935 -7.693,5.167 -2.992,1.231 -6.248,1.848 -9.767,1.848 -1.71,0 -3.42,-0.151 -5.129,-0.453 l -3.394,13.651 -11.162,0 12.52,-52.19 c 2.01,-0.603 4.311,-1.143 6.901,-1.622 2.589,-0.477 5.393,-0.716 8.41,-0.716 2.815,0 5.242,0.428 7.278,1.282 2.037,0.855 3.708,2.024 5.02,3.507 1.307,1.484 2.274,3.219 2.904,5.205 0.627,1.987 0.942,4.11 0.942,6.373 m -27.378,15.461 c 0.854,0.202 1.91,0.302 3.167,0.302 1.961,0 3.746,-0.364 5.355,-1.094 1.609,-0.728 2.979,-1.747 4.111,-3.055 1.131,-1.307 2.01,-2.877 2.64,-4.714 0.628,-1.835 0.943,-3.858 0.943,-6.071 0,-2.161 -0.479,-3.998 -1.433,-5.506 -0.956,-1.508 -2.615,-2.263 -4.978,-2.263 -1.61,0 -3.118,0.151 -4.525,0.453 l -5.28,21.948"
       id="path3383" />
  </g>
</svg>
